<svg width="450" height="450" viewBox="0 0 450 450" fill="none" xmlns="http://www.w3.org/2000/svg">
<path d="M337.5 225C337.5 254.837 325.647 283.452 304.55 304.55C283.452 325.647 254.837 337.5 225 337.5C195.163 337.5 166.548 325.647 145.45 304.55C124.353 283.452 112.5 254.837 112.5 225C112.5 195.163 124.353 166.548 145.45 145.45C166.548 124.353 195.163 112.5 225 112.5C254.837 112.5 283.452 124.353 304.55 145.45C325.647 166.548 337.5 195.163 337.5 225V225ZM225 0C228.73 0 232.306 1.48158 234.944 4.11881C237.581 6.75604 239.062 10.3329 239.062 14.0625V70.3125C239.062 74.0421 237.581 77.619 234.944 80.2562C232.306 82.8934 228.73 84.375 225 84.375C221.27 84.375 217.694 82.8934 215.056 80.2562C212.419 77.619 210.938 74.0421 210.938 70.3125V14.0625C210.938 10.3329 212.419 6.75604 215.056 4.11881C217.694 1.48158 221.27 0 225 0V0ZM225 365.625C228.73 365.625 232.306 367.107 234.944 369.744C237.581 372.381 239.062 375.958 239.062 379.688V435.938C239.062 439.667 237.581 443.244 234.944 445.881C232.306 448.518 228.73 450 225 450C221.27 450 217.694 448.518 215.056 445.881C212.419 443.244 210.938 439.667 210.938 435.938V379.688C210.938 375.958 212.419 372.381 215.056 369.744C217.694 367.107 221.27 365.625 225 365.625V365.625ZM450 225C450 228.73 448.518 232.306 445.881 234.944C443.244 237.581 439.667 239.062 435.938 239.062H379.688C375.958 239.062 372.381 237.581 369.744 234.944C367.107 232.306 365.625 228.73 365.625 225C365.625 221.27 367.107 217.694 369.744 215.056C372.381 212.419 375.958 210.938 379.688 210.938H435.938C439.667 210.938 443.244 212.419 445.881 215.056C448.518 217.694 450 221.27 450 225ZM84.375 225C84.375 228.73 82.8934 232.306 80.2562 234.944C77.619 237.581 74.0421 239.062 70.3125 239.062H14.0625C10.3329 239.062 6.75604 237.581 4.11881 234.944C1.48158 232.306 0 228.73 0 225C0 221.27 1.48158 217.694 4.11881 215.056C6.75604 212.419 10.3329 210.938 14.0625 210.938H70.3125C74.0421 210.938 77.619 212.419 80.2562 215.056C82.8934 217.694 84.375 221.27 84.375 225ZM384.103 65.8969C386.739 68.534 388.22 72.1102 388.22 75.8391C388.22 79.5679 386.739 83.1441 384.103 85.7812L344.334 125.578C343.027 126.884 341.475 127.919 339.767 128.625C338.06 129.331 336.23 129.694 334.382 129.692C330.651 129.69 327.073 128.205 324.436 125.564C323.13 124.257 322.095 122.705 321.389 120.997C320.683 119.29 320.321 117.46 320.322 115.612C320.325 111.88 321.809 108.302 324.45 105.666L364.219 65.8969C366.856 63.2606 370.432 61.7796 374.161 61.7796C377.89 61.7796 381.466 63.2606 384.103 65.8969V65.8969ZM125.55 324.45C128.186 327.087 129.667 330.663 129.667 334.392C129.667 338.121 128.186 341.697 125.55 344.334L85.7812 384.103C83.129 386.665 79.5768 388.082 75.8897 388.05C72.2025 388.018 68.6755 386.539 66.0682 383.932C63.4609 381.325 61.9819 377.797 61.9499 374.11C61.9179 370.423 63.3353 366.871 65.8969 364.219L105.666 324.45C108.303 321.814 111.879 320.333 115.608 320.333C119.337 320.333 122.913 321.814 125.55 324.45V324.45ZM384.103 384.103C381.466 386.739 377.89 388.22 374.161 388.22C370.432 388.22 366.856 386.739 364.219 384.103L324.45 344.334C321.888 341.682 320.471 338.13 320.503 334.443C320.535 330.756 322.014 327.229 324.621 324.621C327.229 322.014 330.756 320.535 334.443 320.503C338.13 320.471 341.682 321.888 344.334 324.45L384.103 364.219C386.739 366.856 388.22 370.432 388.22 374.161C388.22 377.89 386.739 381.466 384.103 384.103ZM125.55 125.578C122.913 128.214 119.337 129.695 115.608 129.695C111.879 129.695 108.303 128.214 105.666 125.578L65.8969 85.7812C64.5538 84.484 63.4825 82.9323 62.7455 81.2166C62.0085 79.5009 61.6205 77.6557 61.6043 75.7885C61.5881 73.9212 61.9439 72.0695 62.6509 70.3413C63.358 68.613 64.4022 67.0429 65.7226 65.7226C67.0429 64.4022 68.613 63.358 70.3413 62.6509C72.0695 61.9439 73.9212 61.5881 75.7885 61.6043C77.6557 61.6205 79.5009 62.0085 81.2166 62.7455C82.9323 63.4825 84.484 64.5538 85.7812 65.8969L125.55 105.666C126.86 106.972 127.899 108.524 128.608 110.232C129.316 111.941 129.681 113.772 129.681 115.622C129.681 117.472 129.316 119.303 128.608 121.012C127.899 122.72 126.86 124.272 125.55 125.578V125.578Z" fill="white"/>
</svg>
